<?xml version="1.0" encoding="iso-8859-1"?>
<!-- Uploaded to: SVG Repo, www.svgrepo.com, Generator: SVG Repo Mixer Tools -->
<svg version="1.1" id="Layer_1" xmlns="http://www.w3.org/2000/svg" xmlns:xlink="http://www.w3.org/1999/xlink" 
	 viewBox="0 0 491.52 491.52" xml:space="preserve">
<rect y="7.814" style="fill:#EBF0F3;" width="491.52" height="408.013"/>
<polygon style="fill:#64798A;" points="35.744,43.56 455.77,43.56 464.707,34.624 26.807,34.624 26.807,389.029 35.744,380.093 "/>
<polygon style="fill:#2F4859;" points="455.77,43.56 455.77,380.093 35.744,380.093 26.807,389.029 464.707,389.029 464.707,34.624 
	"/>
<ellipse style="fill:#44C4A1;" cx="245.76" cy="143.924" rx="28.252" ry="34.688"/>
<path style="fill:#E56353;" d="M364.289,178.606h-17.873c0-55.506-45.156-100.661-100.661-100.661
	c-55.497,0-100.652,45.155-100.652,100.661H127.23c0-65.359,53.166-118.535,118.525-118.535S364.289,113.247,364.289,178.606z"/>
<g>
	<rect x="62.106" y="212.02" style="fill:#D5D6DB;" width="367.309" height="8.94"/>
	<rect x="62.106" y="259.421" style="fill:#D5D6DB;" width="367.309" height="8.94"/>
	<rect x="349.03" y="338.279" style="fill:#D5D6DB;" width="80.394" height="8.94"/>
	<rect x="62.106" y="338.279" style="fill:#D5D6DB;" width="77.829" height="8.94"/>
</g>
<polygon style="fill:#E56353;" points="221.905,378.574 179.693,468.795 200.903,464.973 237.84,386.029 "/>
<polygon style="fill:#CE412D;" points="237.84,386.029 200.903,464.973 211.561,483.706 253.773,393.484 "/>
<polygon style="fill:#E56353;" points="269.615,378.574 311.827,468.795 290.617,464.973 253.68,386.029 "/>
<polygon style="fill:#D15241;" points="253.68,386.029 290.617,464.973 279.959,483.706 237.747,393.484 "/>
<polygon style="fill:#FCD462;" points="306.812,358.154 314.85,350.116 306.812,342.078 312.496,332.235 302.651,326.551 
	305.593,315.571 294.614,312.629 294.614,301.263 283.247,301.263 280.305,290.283 269.325,293.225 263.641,283.381 
	253.798,289.064 245.76,281.026 237.722,289.064 227.879,283.381 222.195,293.225 211.215,290.283 208.273,301.263 196.907,301.263 
	196.907,312.629 185.926,315.571 188.869,326.551 179.024,332.235 184.708,342.078 176.67,350.116 184.708,358.154 179.024,367.998 
	188.869,373.681 185.926,384.661 196.907,387.603 196.907,398.97 208.273,398.97 211.215,409.95 222.195,407.008 227.879,416.852 
	237.722,411.168 245.76,419.206 253.798,411.168 263.641,416.852 269.325,407.008 280.305,409.95 283.247,398.97 294.614,398.97 
	294.614,387.603 305.593,384.661 302.651,373.681 312.496,367.998 "/>
<path style="fill:#E56353;" d="M245.761,399.678c-27.329,0-49.561-22.233-49.561-49.561c0-27.329,22.233-49.563,49.561-49.563
	s49.561,22.234,49.561,49.563C295.322,377.445,273.089,399.678,245.761,399.678z M245.761,307.924
	c-23.266,0-42.191,18.927-42.191,42.193c0,23.264,18.925,42.192,42.191,42.192s42.191-18.927,42.191-42.192
	C287.952,326.851,269.026,307.924,245.761,307.924z"/>
</svg>