<?xml version="1.0" encoding="utf-8"?>
<!-- Uploaded to: SVG Repo, www.svgrepo.com, Generator: SVG Repo Mixer Tools -->
<svg width="800px" height="800px" viewBox="-79.46 0 511.134 511.134" xmlns="http://www.w3.org/2000/svg">
  <g id="Group_12" data-name="Group 12" transform="translate(-1186.122 -2875.116)">
    <path id="path260" d="M1048.337-632.372c-14.521-103.6-37.412-242.317-59.683-275.6C952.034-962.687,876.4-968.606,876.4-968.606s-100.91,6.632-129.393,83.74c-16.455,44.547-36.712,161.588-50.886,252.494h352.215" transform="translate(490 4018.328)" fill="#4f334b"/>
    <path id="path262" d="M943.122-948.086l-18.079,68.934-23.827,11.124,19.409,24.168L886.7-714.8,845.437-844.425s13.944-21.488,12.907-21.488-31.808-4.58-31.808-4.58l-14.979-80.5s17.7-20.249,65.783-20.249,65.782,23.152,65.782,23.152" transform="translate(490 4018.328)" fill="#6b4668"/>
    <path id="path264" d="M842.439-929.318s30.771,45.537,35.957,47.6,26.624-47.6,26.624-47.6-50.825-8.1-62.581,0" transform="translate(490 4018.328)" fill="#e5e5e5"/>
    <path id="path266" d="M907.8-968.606s14.428,6.847,22.1,10.132c4.169,1.787-19.925,39.745-22.1,43.988,0,0-7.24-6.665-13.335-8s-18.669,8-18.669,8-12.573-9.331-18.668-8-13.335,8-13.335,8-22.861-35.547-22.1-43.988,22.1-10.132,22.1-10.132H907.8" transform="translate(490 4018.328)" fill="#ffffff"/>
    <path id="path268" d="M906.055-951.859c-.923,10.7-18.329,25.008-27.652,26.069s-38.215-23.839-31.121-33.477c.991-1.336,1.032-8.607.811-15.879v-.012c-.233-8.071-.811-16.153-.811-16.153l-1.845-34.524h55.785s1.377,16.909,1.377,34.524c0,11.375,1.831,20.051,2.864,27.652a52.44,52.44,0,0,1,.592,11.8" transform="translate(490 4018.328)" fill="#f7966c"/>
    <path id="path270" d="M905.463-963.659c-4.476,3-14.487,8.509-26.853,7.848-16.593-.908-30.075-18.756-30.517-19.335v-.012c-.233-8.071-.811-16.153-.811-16.153l-1.845-34.524h55.785s1.377,16.909,1.377,34.524c0,11.375,1.831,20.051,2.864,27.652" transform="translate(490 4018.328)" fill="#e62"/>
    <path id="path272" d="M981.594-632.078h-.007a.291.291,0,0,1-.289-.307c.007-.387.791-39.333-.3-85.066-1.009-42.2-3.868-98.941-11.759-129.673a.3.3,0,0,1,.213-.36.3.3,0,0,1,.361.213c7.905,30.785,10.768,87.58,11.777,129.806,1.095,45.747.311,84.706.3,85.093a.3.3,0,0,1-.3.293" transform="translate(490 4018.328)" fill="#ffffff"/>
    <path id="path274" d="M771.862-632.078a.3.3,0,0,1-.3-.293c-.008-.387-.792-39.347.3-85.093,1.011-42.227,3.872-99.021,11.779-129.806a.293.293,0,0,1,.361-.213.293.293,0,0,1,.212.36c-7.889,30.732-10.748,87.473-11.759,129.673-1.092,45.72-.308,84.68-.3,85.066a.292.292,0,0,1-.291.307h-.005" transform="translate(490 4018.328)" fill="#ffffff"/>
    <path id="path276" d="M938.391-1047.609a94.352,94.352,0,0,1-.027,32.295,49.037,49.037,0,0,1-4.331,14.712c-2.347,4.567-5.988,8.617-10.7,10.645a400.15,400.15,0,0,1-5.241-44.9q-.674-11.286-.712-22.6c-.015-5.041-1.7-15.233,5.891-15.712,9.94-.628,13.868,18.837,15.124,25.557" transform="translate(490 4018.328)" fill="#6a3b1a"/>
    <path id="path278" d="M816.45-1022.5c.219,8.736,1.927,17.669,6.655,25.02s12.873,12.869,21.612,12.811q-3.56-23.6-4.955-47.453c-.337-5.811-.612-11.639-1.453-17.4-.652-4.472-1.419-12.956-4.945-16.2-7.5-6.9-14.019,19.068-14.924,23.105a82.468,82.468,0,0,0-1.989,20.12" transform="translate(490 4018.328)" fill="#6a3b1a"/>
    <path id="path280" d="M932.6-1031.067a12.881,12.881,0,0,1,11.189,7.027,15.617,15.617,0,0,1,.077,13.441,19.926,19.926,0,0,1-9.761,9.5,10.432,10.432,0,0,1-6.717,1.1,9.814,9.814,0,0,1-5.733-4.733c-5.3-8.7-1.408-26.237,10.945-26.34" transform="translate(490 4018.328)" fill="#f7966c"/>
    <path id="path282" d="M924.65-1022.147a13.393,13.393,0,0,0-1.045,11.108c.588,1.809,1.693,3.68,3.528,4.187a4.549,4.549,0,0,0,4.163-1.212,9.573,9.573,0,0,0,2.317-3.84c1.284-3.513,2.648-10.391.253-13.752s-7.791,1.227-9.216,3.509" transform="translate(490 4018.328)" fill="#e62"/>
    <path id="path284" d="M929.8-1003.35a12.874,12.874,0,0,1-7.047-13.667c.495-3.439,2.888-7.787,6.511-9.445a6.669,6.669,0,0,1,6.633.565,7.8,7.8,0,0,1,3.295,8.653l-.472-.152a7.291,7.291,0,0,0-3.091-8.083,6.2,6.2,0,0,0-6.16-.533c-3.459,1.584-5.749,5.76-6.225,9.065A12.375,12.375,0,0,0,930-1003.8l-.205.452" transform="translate(490 4018.328)" fill="#e2474d"/>
    <path id="path286" d="M821.579-1031.067a12.88,12.88,0,0,0-11.191,7.027,15.626,15.626,0,0,0-.079,13.441,19.938,19.938,0,0,0,9.761,9.5,10.439,10.439,0,0,0,6.72,1.1,9.815,9.815,0,0,0,5.732-4.733c5.3-8.7,1.408-26.237-10.944-26.34" transform="translate(490 4018.328)" fill="#f7966c"/>
    <path id="path288" d="M829.529-1022.147a13.393,13.393,0,0,1,1.045,11.108c-.589,1.809-1.693,3.68-3.528,4.188a4.552,4.552,0,0,1-4.163-1.213,9.59,9.59,0,0,1-2.317-3.84c-1.284-3.513-2.648-10.391-.253-13.753s7.791,1.228,9.216,3.511" transform="translate(490 4018.328)" fill="#e62"/>
    <path id="path290" d="M824.378-1003.35l-.205-.452a12.376,12.376,0,0,0,6.763-13.144c-.475-3.305-2.765-7.483-6.225-9.065a6.194,6.194,0,0,0-6.16.532,7.291,7.291,0,0,0-3.091,8.084l-.472.153a7.8,7.8,0,0,1,3.295-8.655,6.669,6.669,0,0,1,6.633-.565c3.621,1.659,6.016,6.005,6.511,9.445a12.875,12.875,0,0,1-7.048,13.667" transform="translate(490 4018.328)" fill="#e2474d"/>
    <path id="path292" d="M928.492-998.6c-3.307,19.092-34.253,35.115-50.081,35.712s-40.63-15.537-47.912-34.656a42.851,42.851,0,0,1-2.307-10.283c-2.417-21.581,4.821-54.917,13.228-63.477,9.921-10.088,65.838-31.209,86.141,11.325,0,0,1.889,18.9,2.14,37.144.152,9.032-.112,17.9-1.209,24.235" transform="translate(490 4018.328)" fill="#f7966c"/>
    <path id="path294" d="M929.7-1022.831a14.848,14.848,0,0,1-3.725.972c-5.155.612-10.281-1.917-14.005-5.516s-6.311-8.227-8.839-12.756c-7.407-3.4-15.8.805-23.525,3.4-9.144,3.071-18.968,3.864-27.985,7.281s-17.663,10.561-18.691,20.148l-4.739,1.475c-2.417-21.581,4.821-54.917,13.228-63.477,9.921-10.088,65.839-31.209,86.141,11.325,0,0,1.889,18.9,2.14,37.144" transform="translate(490 4018.328)" fill="#e62"/>
    <path id="path296" d="M932.343-1070.008a47.648,47.648,0,0,1,3.045,16.152c.195,6.857-.743,13.691-1.679,20.487l-4.008,29.107c-3.427-2.975-7.549-5.8-10.121-9.493-1.356-1.951-2.749-3.893-3.975-5.939-.855-1.425-3.055-4.279-3.055-5.977-4.885-11.636-3.415-24.834-1.861-37.357-6.195,5.208-11.973,9.505-19.705,12.224-8.015,2.82-16.451,4.291-24.483,7.059-8.76,3.019-19.591,8.7-22.884,17.976-1.692,4.771-4.531,8.707-7.428,12.811a58.248,58.248,0,0,0-4.065,6.352c-.639,1.213-2.969,5.172-2.377,6.557-4.813-11.244-9.128-22.865-10.488-35.021-2.108-18.865,4.392-38.854,20.557-49.856,9.563-6.509,21.363-8.831,32.892-9.765,10.6-.86,21.457-.648,31.619,2.5a55.093,55.093,0,0,1,22.38,13.411,25.717,25.717,0,0,1,5.636,8.776" transform="translate(490 4018.328)" fill="#6a3b1a"/>
    <path id="path298" d="M821.1-1045.355l-64.7-39.7,138.82-58.156,92.849,71.064-45.475,19.483s-95.406-11.573-121.493,7.311" transform="translate(490 4018.328)" fill="#4f334b"/>
    <path id="path300" d="M816.8-1030.991s31.635-27.975,74.291-22.127,49.141,25.248,49.141,25.248l5.119-53.772s-27.889-24.985-71.489-21.581-64.181,23.559-64.181,23.559l7.12,48.673" transform="translate(490 4018.328)" fill="#6b4668"/>
    <path id="path856" d="M830.507-936.815c-4.877-8.908-9.151-17.928-8.815-21.659.005-.047.009-.093.015-.14.984-8.32,22.084-9.992,22.084-9.992h1.5l-14.787,31.791" transform="translate(490 4018.328)" fill="#ffffff"/>
    <path id="path858" d="M848.107-974.655c0-.163-.009-.327-.015-.491.021.028.072.095.152.2l-.137.293" transform="translate(490 4018.328)" fill="#fabca1"/>
    <path id="path860" d="M848.245-974.948c-.08-.1-.131-.169-.152-.2h0v-.012h0l.184.143-.032.068" transform="translate(490 4018.328)" fill="#f49d71"/>
    <path id="path862" d="M779.737-827.663c1.143-7.261,2.437-13.884,3.908-19.608a.29.29,0,0,1,.285-.223.309.309,0,0,1,.076.009.293.293,0,0,1,.212.36c-1.324,5.16-2.508,11.053-3.564,17.489l-.917,1.972" transform="translate(490 4018.328)" fill="#ffffff"/>
    <path id="path864" d="M837.181-985.99A28.718,28.718,0,0,1,823.1-997.482a35.288,35.288,0,0,1-1.763-3.079,10.843,10.843,0,0,0,3.767.76,7.193,7.193,0,0,0,1.683-.193,7.4,7.4,0,0,0,2.493-1.145q.116.278.236.555a31.274,31.274,0,0,0,.979,3.044,44.967,44.967,0,0,0,6.681,11.551" transform="translate(490 4018.328)" fill="#a0816d"/>
    <path id="path866" d="M825.109-999.8a10.842,10.842,0,0,1-3.767-.76c-.432-.161-.856-.343-1.271-.535a20,20,0,0,1-9.648-9.263l4.251-9.136a6.744,6.744,0,0,0,.313,2.252l.472-.153a6.6,6.6,0,0,1-.084-3.608l1.215-2.612a7.279,7.279,0,0,1,1.96-1.864,7.107,7.107,0,0,1,2.163-.947l.056.253a3.149,3.149,0,0,0-.456.515c-2.395,3.363-1.031,10.24.253,13.753a9.592,9.592,0,0,0,2.317,3.84,4.877,4.877,0,0,0,3.209,1.34,3.559,3.559,0,0,0,.853-.1q.178.45.357.9a11.111,11.111,0,0,1-3.131,2.127l.205.452a11.571,11.571,0,0,0,3.125-2.085q.872,2.158,1.781,4.3a7.4,7.4,0,0,1-2.493,1.145,7.2,7.2,0,0,1-1.683.193m-7.805-25.348,2.575-5.536q.322,1.894.728,3.773a7.627,7.627,0,0,0-2.324,1.015,7.564,7.564,0,0,0-.979.748" transform="translate(490 4018.328)" fill="#fabca1"/>
    <path id="path868" d="M826.093-1006.724a4.877,4.877,0,0,1-3.209-1.34,9.592,9.592,0,0,1-2.317-3.84c-1.284-3.513-2.648-10.391-.253-13.753a3.142,3.142,0,0,1,.456-.515,129.9,129.9,0,0,0,6.177,19.347,3.556,3.556,0,0,1-.853.1" transform="translate(490 4018.328)" fill="#f49d71"/>
    <path id="path870" d="M824.378-1003.35l-.205-.452a11.108,11.108,0,0,0,3.131-2.127l.2.493a11.57,11.57,0,0,1-3.125,2.085m-9.391-13.892a6.746,6.746,0,0,1-.313-2.252l.7-1.509a6.606,6.606,0,0,0,.084,3.608l-.472.153m1.6-6.373.713-1.533a7.562,7.562,0,0,1,.979-.748,7.63,7.63,0,0,1,2.324-1.015c.035.161.071.324.107.485a7.111,7.111,0,0,0-2.163.947,7.277,7.277,0,0,0-1.96,1.864" transform="translate(490 4018.328)" fill="#ec898d"/>
    <path id="path922" d="M878.734-881.653a.918.918,0,0,1-.337-.063,2.8,2.8,0,0,1-.528-.3L896.421-921.9a26.184,26.184,0,0,1,4.331,2.153c-6.344,13.917-17.949,38.095-22.017,38.092" transform="translate(490 4018.328)" fill="#eee"/>
    <path id="path924" d="M907.8-914.486a49.923,49.923,0,0,0-7.047-5.259,26.186,26.186,0,0,0-4.331-2.153l19.872-42.724c4.5,2.091,9.857,4.544,13.6,6.148,4.169,1.787-19.925,39.745-22.1,43.988" transform="translate(490 4018.328)" fill="#ffffff"/>
    <path id="path926" d="M772.158-632.385h-.593c-.008-.347-.161-8.107-.237-20.573l.587-1.253c.073,13.347.241,21.653.244,21.827h0" transform="translate(490 4018.328)" fill="#ffffff"/>
    <path id="path928" d="M930.676-995.544l2.369-5.1c.36-.14.713-.293,1.06-.455l.229-.109c-.1.2-.2.4-.3.6a26.682,26.682,0,0,1-3.357,5.059" transform="translate(490 4018.328)" fill="#a0816d"/>
    <path id="path930" d="M933.046-1000.64l10.817-23.256a15.645,15.645,0,0,1,0,13.3,19.883,19.883,0,0,1-9.532,9.395l-.229.109c-.347.161-.7.315-1.06.455" transform="translate(490 4018.328)" fill="#fabca1"/>
    <path id="path932" d="M960.892-1060.507l11.127-23.921,16.045,12.28-27.172,11.641" transform="translate(490 4018.328)" fill="#8e7d8c"/>
  </g>
</svg>